<?xml version="1.0" encoding="UTF-8" standalone="no"?>
<svg
   xmlns:dc="http://purl.org/dc/elements/1.1/"
   xmlns:cc="http://creativecommons.org/ns#"
   xmlns:rdf="http://www.w3.org/1999/02/22-rdf-syntax-ns#"
   xmlns:svg="http://www.w3.org/2000/svg"
   xmlns="http://www.w3.org/2000/svg"
   xmlns:sodipodi="http://sodipodi.sourceforge.net/DTD/sodipodi-0.dtd"
   xmlns:inkscape="http://www.inkscape.org/namespaces/inkscape"
   width="332.1796"
   height="333.55493"
   viewBox="0 0 87.889182 88.25308"
   version="1.1"
   id="svg865"
   inkscape:version="1.0.2-2 (e86c870879, 2021-01-15)"
   sodipodi:docname="circle.svg">
  <defs
     id="defs859" />
  <sodipodi:namedview
     id="base"
     pagecolor="#ffffff"
     bordercolor="#ABC4D1"
     borderopacity="1.0"
     inkscape:pageopacity="0.0"
     inkscape:pageshadow="2"
     inkscape:zoom="0.35355339"
     inkscape:cx="458.51137"
     inkscape:cy="401.39652"
     inkscape:document-units="mm"
     inkscape:current-layer="layer1"
     inkscape:document-rotation="0"
     showgrid="false"
     units="px"
     showborder="false"
     inkscape:snap-nodes="false"
     inkscape:window-width="1366"
     inkscape:window-height="705"
     inkscape:window-x="228"
     inkscape:window-y="1112"
     inkscape:window-maximized="1"
     fit-margin-top="0"
     fit-margin-left="0"
     fit-margin-right="0"
     fit-margin-bottom="0" />
  <metadata
     id="metadata862">
    <rdf:RDF>
      <cc:Work
         rdf:about="">
        <dc:format>image/svg+xml</dc:format>
        <dc:type
           rdf:resource="http://purl.org/dc/dcmitype/StillImage" />
        <dc:title></dc:title>
      </cc:Work>
    </rdf:RDF>
  </metadata>
  <g
     id="layer1"
     transform="translate(541.78228,78.984931)">
    <path
       style="opacity:0.535484;fill:#ABC4D1;stroke:#ABC4D1;stroke-width:0.707107;stroke-linecap:round;stroke-linejoin:round"
       d=""
       id="path1491"
       transform="scale(0.26458333)" />
    <g
       id="circle7"
       transform="rotate(-59.097949,-458.99984,119.22999)"
       style="fill:#ABC4D1;fill-opacity:0.21;stroke:#ABC4D1;stroke-opacity:0.21">
      <path
         style="opacity:0.535484;fill:#ABC4D1;fill-opacity:0.21;stroke:#ABC4D1;stroke-width:0.707107;stroke-linecap:round;stroke-linejoin:round;stroke-opacity:0.21"
         d="m -1373.8798,-40.151798 -4.0908,-4.288734 2.3922,-2.494897 c 5.8436,-6.094707 25.5136,-17.17156 35.9797,-20.261459 11.7374,-3.465251 22.8986,-5.26356 24.4869,-3.94539 0.6679,0.554352 0.9689,2.506072 0.9689,6.283082 v 5.478939 l -4.4001,0.49782 c -5.7525,0.650822 -18.7817,4.057375 -24.5913,6.429541 -5.9303,2.421463 -14.0403,7.244435 -20.9441,12.455257 -3.0128,2.274016 -5.5302,4.134575 -5.5942,4.134575 -0.064,0 -1.9573,-1.92993 -4.2072,-4.288734 z"
         id="path1623"
         transform="scale(0.26458333)" />
      <path
         style="opacity:0.535484;fill:#ABC4D1;fill-opacity:0.21;stroke:#ABC4D1;stroke-width:0.707107;stroke-linecap:round;stroke-linejoin:round;stroke-opacity:0.21"
         d="m -1193.9347,20.403091 c 0,-16.8738659 -6.516,-38.535113 -16.4559,-54.704475 -17.5304,-28.517146 -44.3277,-47.610916 -76.6975,-54.648887 -10.804,-2.34906 -30.9895,-2.693386 -42.5428,-0.7257 -19.2299,3.275111 -39.2965,12.3098 -54.162,24.385604 -1.9445,1.579626 -7.0784,6.301395 -11.4086,10.492821 -4.3301,4.191425 -8.2161,7.620773 -8.6355,7.620773 -0.9841,0 -8.0399,-5.749012 -8.4032,-6.846794 -0.3505,-1.05924 8.0425,-9.9502 16.78,-17.775649 12.2331,-10.956109 28.5774,-20.236485 45.5378,-25.856532 14.27,-4.728562 16.7495,-5.034412 40.3757,-4.980472 l 21.2132,0.0484 8.1317,2.1639 c 24.4744,6.512763 41.7296,16.091566 58.9459,32.722243 23.9652,23.150144 38.224,53.076245 39.797,83.524963 l 0.4601,8.906427 -2.3137,0.462738 c -1.2726,0.254509 -4.1831,0.462745 -6.468,0.462745 h -4.1542 z"
         id="path1625"
         transform="scale(0.26458333)" />
      <path
         style="opacity:0.535484;fill:#ABC4D1;fill-opacity:0.21;stroke:#ABC4D1;stroke-width:0.707107;stroke-linecap:round;stroke-linejoin:round;stroke-opacity:0.21"
         d="m -1394.7665,-79.526908 -1.5303,-1.944544 2.7164,-2.357751 c 6.4662,-5.61242 23.5559,-14.920104 35.7801,-19.487217 12.4669,-4.65775 21.7323,-6.64398 35.0411,-7.51178 26.8375,-1.74994 45.5147,1.25871 68.5558,11.04344 3.3963,1.442259 6.278,2.702568 6.4039,2.800689 0.3451,0.268947 -1.892,4.404299 -2.629,4.85979 -0.3533,0.218353 -2.5034,-0.51559 -4.778,-1.630984 -5.9742,-2.929592 -20.1912,-7.578345 -28.276,-9.245885 -34.8839,-7.19498 -72.787,0.32024 -101.402,20.105421 -4.2266,2.92235 -7.8348,5.313364 -8.0182,5.313364 -0.1834,0 -1.0221,-0.875044 -1.8638,-1.944543 z"
         id="path1627"
         transform="scale(0.26458333)" />
      <path
         style="opacity:0.535484;fill:#ABC4D1;fill-opacity:0.21;stroke:#ABC4D1;stroke-width:0.707107;stroke-linecap:round;stroke-linejoin:round;stroke-opacity:0.21"
         d="m -1444.6457,-30.50702 c -1.3336,-0.979273 -1.2851,-1.185246 1.7056,-7.247845 15.4018,-31.221077 39.1256,-54.646212 70.4609,-69.573845 17.7617,-8.4614 35.1935,-12.69357 56.0382,-13.60526 l 5.8336,-0.25514 v 2.66816 c 0,3.05161 1.2418,2.68651 -14.1421,4.15814 -26.5045,2.53545 -53.6657,13.7427 -74.9775,30.937245 -6.8254,5.506828 -18.2218,17.352876 -23.6606,24.59408 -5.0431,6.714484 -9.9286,14.670162 -14.2135,23.145197 -3.2668,6.461478 -4.282,7.207893 -7.0446,5.179268 z"
         id="path1629"
         transform="scale(0.26458333)" />
      <path
         style="opacity:0.535484;fill:#ABC4D1;fill-opacity:0.21;stroke:#ABC4D1;stroke-width:0.707107;stroke-linecap:round;stroke-linejoin:round;stroke-opacity:0.21"
         d="m -1453.2661,-48.289285 c -2.4307,-1.377704 -4.4195,-2.896431 -4.4195,-3.374945 0,-1.415755 7.9324,-14.003712 13.2978,-21.102399 11.0358,-14.600889 27.4321,-30.659611 38.4325,-37.641201 1.8533,-1.17628 1.9028,-1.16056 3.5994,1.14393 0.9462,1.28513 2.4184,3.50542 3.2715,4.93397 l 1.5512,2.59737 -6.9185,5.615869 c -8.3683,6.792843 -22.3257,21.034865 -28.2511,28.827324 -4.9953,6.569202 -12.0268,17.299494 -12.9811,19.809374 -0.8787,2.311145 -2.3549,2.153586 -7.5822,-0.809292 z"
         id="path1631"
         transform="scale(0.26458333)" />
      <path
         style="opacity:0.535484;fill:#ABC4D1;fill-opacity:0.21;stroke:#ABC4D1;stroke-width:0.707107;stroke-linecap:round;stroke-linejoin:round;stroke-opacity:0.21"
         d="m -1245.9071,-113.70023 c -6.736,-3.30295 -19.9331,-7.85686 -29.5981,-10.21341 -3.8339,-0.93479 -13.4691,-2.41044 -21.4115,-3.27923 -16.3258,-1.78581 -14.667,-0.83009 -15.4523,-8.90258 l -0.4299,-4.41942 7.6365,0.0138 c 19.1036,0.0345 42.1293,5.34397 63.2652,14.5882 7.2379,3.16565 9.0509,4.23294 8.7104,5.1277 -1.1948,3.13921 -5.4713,9.96188 -6.2142,9.91374 -0.4671,-0.0303 -3.3948,-1.30324 -6.5061,-2.82881 z"
         id="path1633"
         transform="scale(0.26458333)" />
      <path
         style="opacity:0.535484;fill:#ABC4D1;fill-opacity:0.21;stroke:#ABC4D1;stroke-width:0.707107;stroke-linecap:round;stroke-linejoin:round;stroke-opacity:0.21"
         d="m -1173.7869,-7.6810974 c -5.1199,-20.8537526 -13.9977,-38.9408516 -27.0213,-55.0520246 -5.586,-6.910274 -18.2026,-19.103046 -25.0858,-24.243102 -6.6388,-4.957452 -14.8914,-10.118879 -21.4619,-13.422796 -6.2694,-3.15255 -22.7774,-9.30413 -28.0729,-10.46115 -3.9703,-0.86749 -4.0659,-0.94439 -4.0659,-3.27291 0,-1.52562 0.4043,-2.53969 1.1225,-2.81526 1.6602,-0.6371 14.3778,2.96338 23.2727,6.58877 19.2152,7.83171 34.9751,18.559757 49.8563,33.938005 18.6956,19.320142 30.6963,40.851731 37.5405,67.3552737 1.1445,4.4321383 1.983,8.15639899 1.8633,8.27611924 -0.1198,0.11972732 -1.5134,0.42487218 -3.0969,0.67809419 l -2.8793,0.46041136 z"
         id="path1635"
         transform="scale(0.26458333)" />
      <path
         style="opacity:0.535484;fill:#ABC4D1;fill-opacity:0.21;stroke:#ABC4D1;stroke-width:0.707107;stroke-linecap:round;stroke-linejoin:round;stroke-opacity:0.21"
         d="m -1156.8044,19.468041 c -2.0468,-26.7588239 -10.1019,-53.541707 -21.9876,-73.107621 -1.4009,-2.306226 -2.378,-4.634127 -2.1711,-5.173112 0.2068,-0.538985 2.3594,-2.326895 4.7836,-3.973133 l 4.4077,-2.99316 1.6636,2.053262 c 2.1262,2.624097 9.8273,17.730609 13.483,26.448445 6.5238,15.557244 10.6645,32.5319911 11.8151,48.436815 0.2251,3.111269 0.5855,7.645592 0.8009,10.076271 l 0.3916,4.419418 h -6.3568 -6.3567 z"
         id="path1637"
         transform="scale(0.26458333)" />
      <path
         style="opacity:0.535484;fill:#ABC4D1;fill-opacity:0.21;stroke:#ABC4D1;stroke-width:0.707107;stroke-linecap:round;stroke-linejoin:round;stroke-opacity:0.21"
         d="m -1205.6786,-54.071064 c -1.4969,-1.847316 -6.9446,-7.748082 -12.1059,-13.112812 -5.1614,-5.36473 -9.3843,-10.194522 -9.3843,-10.732871 0,-1.192488 1.9105,-3.198433 3.0558,-3.208416 1.1142,-0.0097 18.4752,17.706231 22.2442,22.698936 3.3086,4.382971 3.5604,5.352915 1.7469,6.729595 -1.9656,1.492123 -2.6658,1.192927 -5.5567,-2.374432 z"
         id="path1639"
         transform="scale(0.26458333)" />
      <path
         style="opacity:0.535484;fill:#ABC4D1;fill-opacity:0.21;stroke:#ABC4D1;stroke-width:0.707107;stroke-linecap:round;stroke-linejoin:round;stroke-opacity:0.21"
         d="m -1246.2606,114.83973 c 0,-0.33993 1.6705,-2.16429 3.7123,-4.05413 20.7454,-19.201768 31.1732,-35.607748 37.48,-58.967424 2.1713,-8.04225 2.196,-8.326238 2.2451,-25.809397 0.048,-17.02093 -0.021,-17.9403668 -1.8447,-24.7487374 -2.7363,-10.2145251 -5.1761,-16.6675366 -9.55,-25.2597846 -5.2956,-10.402814 -11.303,-18.657323 -19.6824,-27.045062 -18.2746,-18.292554 -41.6809,-29.142655 -68.0675,-31.553048 -18.7801,-1.71554 -39.7082,2.438694 -57.6098,11.435571 -21.6976,10.904662 -36.7017,26.197516 -48.6455,49.581816 -2.3239,4.549706 -4.5394,8.466413 -4.9235,8.703788 -1.8781,1.160702 -0.3439,-4.56338 2.8898,-10.782438 14.6278,-28.131863 37.5311,-47.670662 66.769,-56.960608 11.7637,-3.737757 16.4223,-4.319075 33.9411,-4.235241 21.3155,0.102003 30.5903,2.198295 48.0833,10.867755 30.6006,15.165596 52.4476,43.013497 59.8643,76.3079118 1.4596,6.5523201 1.6535,9.2523012 1.6504,22.9809702 0,10.001891 -0.3461,17.449911 -0.9627,20.85965 -1.9844,10.972565 -8.3573,27.133802 -14.9178,37.830213 -6.3481,10.350148 -17.1982,22.518905 -25.7601,28.890905 -3.4889,2.59645 -4.6713,3.09192 -4.6713,1.95729 z"
         id="path1641"
         transform="scale(0.26458333)" />
      <path
         style="opacity:0.535484;fill:#ABC4D1;fill-opacity:0.21;stroke:#ABC4D1;stroke-width:0.707107;stroke-linecap:round;stroke-linejoin:round;stroke-opacity:0.21"
         d="m -1207.9163,18.053828 c -0.4773,-6.264882 -1.487,-13.1361917 -2.5285,-17.20708322 -7.4598,-29.15848978 -28.1959,-54.80119878 -54.5542,-67.46291178 -4.278,-2.055017 -9.8464,-4.406576 -12.3743,-5.225686 -21.2411,-6.882668 -45.5975,-6.999666 -65.5965,-0.315097 -13.5377,4.524921 -32.2969,16.09603 -41.5036,25.600425 -3.816,3.939346 -4.6228,4.335424 -4.6228,2.269444 0,-3.419637 19.471,-18.618136 31.7404,-24.775617 24.7914,-12.441739 54.6031,-14.383756 80.804,-5.263802 12.5833,4.379951 23.3348,10.476646 33.8267,19.181556 22.329,18.525932 36.2693,46.391894 37.956,75.872031 0.4237,7.405119 0.3805,7.756566 -0.9543,7.756566 -1.2937,0 -1.4576,-0.779239 -2.1929,-10.429825 z"
         id="path1643"
         transform="scale(0.26458333)" />
      <path
         style="opacity:0.535484;fill:#ABC4D1;fill-opacity:0.21;stroke:#ABC4D1;stroke-width:0.707107;stroke-linecap:round;stroke-linejoin:round;stroke-opacity:0.21"
         d="m -1244.7468,-27.413512 c -2.4731,-3.129268 -7.962,-8.740705 -12.1976,-12.469859 -4.2355,-3.729155 -7.701,-7.253112 -7.701,-7.831016 0,-1.392266 4.401,-9.361881 5.1699,-9.361881 3.8082,0 29.4783,24.516449 29.4783,28.153455 0,0.603183 -9.164,7.20521 -9.9946,7.200382 -0.1421,-8.49e-4 -2.2819,-2.561814 -4.755,-5.691081 z"
         id="path1645"
         transform="scale(0.26458333)" />
      <path
         style="opacity:0.535484;fill:#ABC4D1;fill-opacity:0.21;stroke:#ABC4D1;stroke-width:0.707107;stroke-linecap:round;stroke-linejoin:round;stroke-opacity:0.21"
         d="m -1283.3837,-40.819027 c -2.7224,-1.119534 -7.7602,-2.731887 -11.195,-3.583004 -5.6346,-1.396174 -7.8327,-2.721104 -6.5848,-3.96905 0.7491,-0.749089 15.3239,3.252475 20.0341,5.500413 4.045,1.930517 5.3051,3.398393 3.3583,3.912198 -0.3646,0.09623 -2.8903,-0.741021 -5.6126,-1.860557 z"
         id="path1647"
         transform="scale(0.26458333)" />
      <path
         style="opacity:0.535484;fill:#ABC4D1;fill-opacity:0.21;stroke:#ABC4D1;stroke-width:0.707107;stroke-linecap:round;stroke-linejoin:round;stroke-opacity:0.21"
         d="m -1216.7823,156.3477 c -1.8235,-2.38111 -3.3154,-4.71678 -3.3154,-5.19037 0,-0.47359 2.466,-2.88827 5.4801,-5.36596 15.0117,-12.34037 28.0795,-27.88417 39.0366,-46.43302 1.6697,-2.826605 3.3314,-5.321954 3.6926,-5.545219 0.8289,-0.512256 7.9558,3.056222 9.4903,4.751812 1.0703,1.182668 0.9751,1.581237 -1.3845,5.800647 -11.6594,20.84889 -29.1329,41.01614 -47.1661,54.43721 l -2.5183,1.8742 z"
         id="path1649"
         transform="scale(0.26458333)" />
      <path
         style="opacity:0.535484;fill:#ABC4D1;fill-opacity:0.21;stroke:#ABC4D1;stroke-width:0.707107;stroke-linecap:round;stroke-linejoin:round;stroke-opacity:0.21"
         d="m -1220.4959,125.74193 c -0.642,-0.97979 -0.9002,-2.13544 -0.5925,-2.65165 0.2999,-0.50324 3.518,-4.25606 7.1512,-8.3396 15.8812,-17.849583 25.6943,-36.051921 31.0844,-57.658389 2.2024,-8.828155 2.7715,-9.793638 5.386,-9.137428 2.5006,0.627603 2.5211,2.797049 0.114,12.061316 -3.5755,13.761307 -10.9104,30.10458 -18.6762,41.612861 -6.8323,10.12517 -20.4959,25.84956 -22.4617,25.84956 -0.477,0 -1.3793,-0.7815 -2.0052,-1.73667 z"
         id="path1651"
         transform="scale(0.26458333)" />
      <path
         style="opacity:0.535484;fill:#ABC4D1;fill-opacity:0.21;stroke:#ABC4D1;stroke-width:0.707107;stroke-linecap:round;stroke-linejoin:round;stroke-opacity:0.21"
         d="m -1331.467,153.72018 c -14.2917,-2.66031 -24.4303,-6.04106 -36.416,-12.14301 -24.2339,-12.33754 -42.2626,-29.56936 -55.9905,-53.515658 l -4.7654,-8.312618 3.3311,-1.697771 c 1.8321,-0.933774 4.3231,-2.113662 5.5355,-2.621974 l 2.2043,-0.924202 4.7952,7.925274 c 13.1541,21.740729 28.5524,36.712469 48.1078,46.775309 20.6412,10.62149 41.0197,14.53847 64.8198,12.45913 17.375,-1.51801 32.0372,-5.88648 45.4612,-13.5448 26.8822,-15.33617 45.589,-38.103264 55.4421,-67.475835 l 2.6136,-7.791161 5.872,1.32128 5.872,1.321279 -0.4382,2.740863 c -1.0845,6.782093 -10.0287,26.853288 -16.4478,36.909912 -11.1805,17.515962 -28.8324,34.105752 -47.0242,44.194832 -6.3459,3.5194 -18.5319,8.51078 -26.3175,10.77958 -11.683,3.40458 -18.5849,4.32514 -34.7347,4.63287 -12.3416,0.23515 -16.0433,0.0607 -21.9203,-1.0333 z"
         id="path1653"
         transform="scale(0.26458333)" />
      <path
         style="opacity:0.535484;fill:#ABC4D1;fill-opacity:0.21;stroke:#ABC4D1;stroke-width:0.707107;stroke-linecap:round;stroke-linejoin:round;stroke-opacity:0.21"
         d="m -1277.3908,156.7775 c -1.0477,-2.75561 -0.9394,-2.9279 2.6691,-4.24408 10.8927,-3.97308 19.7113,-7.5839 24.9293,-10.20748 l 5.941,-2.98708 1.6203,2.02482 c 0.8912,1.11365 1.6219,2.25479 1.6238,2.53586 0.01,1.0983 -21.5039,10.66452 -29.9013,13.29724 -5.6546,1.77279 -6.0582,1.74821 -6.8822,-0.41928 z"
         id="path1655"
         transform="scale(0.26458333)" />
      <path
         style="opacity:0.535484;fill:#ABC4D1;fill-opacity:0.21;stroke:#ABC4D1;stroke-width:0.707107;stroke-linecap:round;stroke-linejoin:round;stroke-opacity:0.21"
         d="m -1321.214,191.3431 c -18.0456,-0.82343 -40.5533,-6.35383 -58.2094,-14.3027 -5.3968,-2.42966 -5.2831,-1.97279 -2.216,-8.90814 0.9131,-2.06474 1.9374,-3.92536 2.2761,-4.13469 0.3387,-0.20933 4.7557,1.34759 9.8155,3.45983 15.6166,6.51922 32.5754,10.20782 53.1669,11.56398 5.575,0.36717 10.2968,0.82805 10.4929,1.02417 0.1962,0.19612 0.5328,2.9268 0.7481,6.06818 l 0.3915,5.71159 -5.9347,-0.13625 c -3.2641,-0.0749 -8.0029,-0.23062 -10.5309,-0.34597 z"
         id="path1657"
         transform="scale(0.26458333)" />
      <path
         style="opacity:0.535484;fill:#ABC4D1;fill-opacity:0.21;stroke:#ABC4D1;stroke-width:0.707107;stroke-linecap:round;stroke-linejoin:round;stroke-opacity:0.21"
         d="m -1367.1759,161.14048 c -27.4909,-11.95646 -49.3357,-30.13786 -65.9031,-54.85108 -9.3072,-13.883253 -17.9485,-34.198836 -21.0775,-49.553012 -1.9408,-9.523968 -1.9813,-9.284663 1.5269,-9.024733 l 2.9346,0.217434 1.3441,6.717515 c 1.9603,9.797048 6.3589,22.398511 11.4771,32.880465 14.8484,30.409181 39.3905,53.975791 70.0072,67.224571 4.6594,2.01626 8.5953,4.03687 8.7464,4.49024 0.1511,0.45338 0.079,1.60616 -0.1613,2.56174 -0.5843,2.32817 -2.313,2.19928 -8.8944,-0.66314 z"
         id="path1659"
         transform="scale(0.26458333)" />
      <path
         style="opacity:0.535484;fill:#ABC4D1;fill-opacity:0.21;stroke:#ABC4D1;stroke-width:0.707107;stroke-linecap:round;stroke-linejoin:round;stroke-opacity:0.21"
         d="m -1384.5113,141.55267 c -24.0661,-16.85833 -38.1294,-32.83417 -49.6726,-56.427702 -4.3936,-8.980276 -4.5667,-9.522945 -3.3265,-10.429825 2.7276,-1.994433 3.6587,-1.203321 7.8206,6.644742 9.5482,18.005021 14.895,25.492565 26.4039,36.975475 6.8991,6.88361 17.1991,15.37817 24.0081,19.79991 l 1.6796,1.09072 -1.3566,2.64436 -1.3567,2.64436 z"
         id="path1661"
         transform="scale(0.26458333)" />
      <path
         style="opacity:0.535484;fill:#ABC4D1;fill-opacity:0.21;stroke:#ABC4D1;stroke-width:0.707107;stroke-linecap:round;stroke-linejoin:round;stroke-opacity:0.21"
         d="m -1452.0238,113.15243 c -14.1898,-23.57456 -23.2087,-51.399624 -24.5213,-75.653166 l -0.4497,-8.308505 h 6.1056 c 7.1146,0 6.303,-1.25217 7.5058,11.580196 2.0493,21.863983 8.1914,40.415899 21.5197,65.000185 2.2774,4.20061 4.0243,7.72066 3.8821,7.82234 -0.1422,0.10168 -2.3793,1.67318 -4.9713,3.49221 l -4.7127,3.30734 z"
         id="path1663"
         transform="scale(0.26458333)" />
      <path
         style="opacity:0.535484;fill:#ABC4D1;fill-opacity:0.21;stroke:#ABC4D1;stroke-width:0.707107;stroke-linecap:round;stroke-linejoin:round;stroke-opacity:0.21"
         d="m -1446.6778,46.953543 c -0.8029,-3.413637 -1.3504,-36.621563 -0.6114,-37.0783077 0.3831,-0.2367207 1.8281,-0.2467502 3.2113,-0.022288 l 2.515,0.4081137 -0.1064,11.762946 c -0.058,6.469621 0.1483,14.822596 0.4597,18.562169 l 0.566,6.799222 -2.7992,0.710513 c -2.6814,0.680595 -2.8176,0.632494 -3.235,-1.142368 z"
         id="path1665"
         transform="scale(0.26458333)" />
      <path
         style="opacity:0.535484;fill:#ABC4D1;fill-opacity:0.21;stroke:#ABC4D1;stroke-width:0.707107;stroke-linecap:round;stroke-linejoin:round;stroke-opacity:0.21"
         d="m -1437.8134,24.428877 -2.4016,-0.292916 0.4211,-7.195319 c 0.4475,-7.6466716 2.1941,-18.0180149 3.2045,-19.0284285 0.696,-0.6959978 10.5032,1.35848502 11.1009,2.32548295 0.216,0.34958829 -0.099,3.94544685 -0.6993,7.99079625 -0.6007,4.0453503 -1.0922,9.4621813 -1.0922,12.0374043 v 4.682222 l -4.0658,-0.113163 c -2.2363,-0.06224 -5.1466,-0.244975 -6.4676,-0.406079 z"
         id="path1667"
         transform="scale(0.26458333)" />
      <path
         style="opacity:0.535484;fill:#ABC4D1;fill-opacity:0.21;stroke:#ABC4D1;stroke-width:0.707107;stroke-linecap:round;stroke-linejoin:round;stroke-opacity:0.21"
         d="m -1402.8255,56.944701 c -1.5688,-4.725398 -4.6414,-18.526349 -4.6491,-20.881843 -0.01,-2.317563 0.2208,-2.423538 6.88,-3.193969 l 5.1187,-0.59219 0.4264,2.522894 c 0.2345,1.387592 1.3656,6.428743 2.5136,11.202557 1.1479,4.773815 1.871,9.029494 1.6067,9.457066 -0.4964,0.803255 -8.9346,4.844242 -10.1155,4.844242 -0.3662,0 -1.1676,-1.511441 -1.7808,-3.358757 z"
         id="path1669"
         transform="scale(0.26458333)" />
      <path
         style="opacity:0.535484;fill:#ABC4D1;fill-opacity:0.21;stroke:#ABC4D1;stroke-width:0.707107;stroke-linecap:round;stroke-linejoin:round;stroke-opacity:0.21"
         d="m -1359.8184,109.91852 c -6.1814,-4.0131 -14.1515,-10.529307 -21.4853,-17.565944 l -6.5032,-6.239721 4.978,-3.775164 c 2.7379,-2.076341 5.311,-3.56938 5.718,-3.317865 0.4069,0.251514 2.3846,2.196324 4.3948,4.321799 4.9169,5.198922 11.9157,10.850595 17.9189,14.469929 2.72,1.639882 5.0451,3.066236 5.1669,3.169676 0.2533,0.21512 -5.4166,11.64813 -5.7766,11.64813 -0.1298,0 -2.115,-1.21988 -4.4115,-2.71084 z"
         id="path1671"
         transform="scale(0.26458333)" />
      <path
         style="opacity:0.535484;fill:#ABC4D1;fill-opacity:0.21;stroke:#ABC4D1;stroke-width:0.707107;stroke-linecap:round;stroke-linejoin:round;stroke-opacity:0.21"
         d="m -1298.8467,121.9729 c -0.2621,-0.42416 -1.8612,-11.23825 -1.8612,-12.58694 0,-0.0542 1.9888,-0.26246 4.4195,-0.46283 8.4208,-0.69419 23.9689,-6.91237 34.1026,-13.638694 2.2012,-1.461121 6.4771,-4.984721 9.5019,-7.830224 l 5.4996,-5.173641 4.7486,4.037463 4.7485,4.037462 -6.0689,5.8173 c -11.4796,11.003754 -27.7466,20.018254 -43.0212,23.840584 -8.8488,2.21433 -11.6326,2.66629 -12.0694,1.95952 z"
         id="path1673"
         transform="scale(0.26458333)" />
      <path
         style="opacity:0.535484;fill:#ABC4D1;fill-opacity:0.21;stroke:#ABC4D1;stroke-width:0.707107;stroke-linecap:round;stroke-linejoin:round;stroke-opacity:0.21"
         d="m -1266.646,63.133858 -3.0612,-2.768458 2.5471,-3.335832 c 6.5053,-8.519736 9.7844,-19.069394 9.8619,-31.727896 0.043,-6.994778 -0.2367,-9.411496 -1.5911,-13.758126 -2.1197,-6.8025259 -5.4309,-13.3110676 -9.8402,-19.3420139 l -3.521,-4.8158691 3.2656,-3.085377 3.2655,-3.085376 1.9863,2.244391 c 6.6848,7.5535408 12.127,18.3665972 14.7219,29.250935 1.9127,8.023066 1.5944,20.274705 -0.7497,28.854892 -2.6441,9.678185 -10.49,24.447121 -12.9444,24.366186 -0.4837,-0.01598 -2.257,-1.274808 -3.9407,-2.797456 z"
         id="path1675"
         transform="scale(0.26458333)" />
      <path
         style="opacity:0.535484;fill:#ABC4D1;fill-opacity:0.21;stroke:#ABC4D1;stroke-width:0.707107;stroke-linecap:round;stroke-linejoin:round;stroke-opacity:0.21"
         d="m -1318.1563,49.426637 c -6.3365,-2.068313 -12.5585,-7.673207 -15.2614,-13.747699 -2.1056,-4.732148 -2.4812,-12.959081 -0.8311,-18.20512 1.7746,-5.64208 7.8148,-12.0807321 13.9028,-14.8200705 6.3888,-2.87469352 13.4306,-2.80005532 19.8641,0.2105462 10.5815,4.9516842 16.6995,16.0598313 14.6324,26.5670863 -1.6416,8.34391 -5.9937,14.490372 -12.8545,18.15453 -3.9176,2.092263 -5.2317,2.417766 -10.4891,2.598233 -3.7119,0.127415 -7.1396,-0.162271 -8.9632,-0.757506 z m 14.6666,-10.159606 c 8.709,-4.415146 11.1479,-16.644481 4.7684,-23.910259 -3.3645,-3.83202 -5.8212,-4.831041 -11.9518,-4.860199 -4.6213,-0.02198 -5.7553,0.230163 -8.1437,1.810687 -10.1388,6.709538 -9.4562,21.724629 1.2297,27.049638 4.9718,2.477513 9.0848,2.451292 14.0974,-0.08987 z"
         id="path1677"
         transform="scale(0.26458333)" />
      <path
         style="opacity:0.535484;fill:#ABC4D1;fill-opacity:0.21;stroke:#ABC4D1;stroke-width:0.707107;stroke-linecap:round;stroke-linejoin:round;stroke-opacity:0.21"
         d="m -1226.3001,17.780448 c -0.4781,-4.419319 -1.3369,-9.77881 -1.9085,-11.9099804 -0.5716,-2.1311705 -0.8101,-4.0689877 -0.53,-4.3062606 0.7577,-0.64197928 11.5164,-3.674748 11.8506,-3.340573 1.2269,1.22686586 4.5682,25.546217 3.6378,26.476676 -0.2763,0.276273 -3.1299,0.640229 -6.3414,0.80879 l -5.8391,0.306473 z"
         id="path1679"
         transform="scale(0.26458333)" />
      <path
         style="opacity:0.535484;fill:#ABC4D1;fill-opacity:0.21;stroke:#ABC4D1;stroke-width:0.353553;stroke-linecap:round;stroke-linejoin:round;stroke-opacity:0.21"
         d="m -1369.4399,21.393878 c -3.4138,-0.442758 -4.0659,-0.77734 -4.0659,-2.086082 0,-1.840606 1.6585,-8.994808 3.009,-12.9801077 4.8297,-14.2516011 14.5959,-26.7061963 26.9498,-34.3683503 7.8208,-4.8506 15.1692,-7.428029 26.3055,-9.226565 6.6758,-1.078151 7.0217,-0.818101 7.0217,5.277658 v 3.91233 l -0.9722,0.0021 c -1.6712,0.0036 -7.9182,1.030272 -10.8057,1.775914 -4.3298,1.118046 -6.8226,2.033135 -11.1988,4.110888 -6.1985,2.94298 -10.4969,5.977204 -15.4181,10.883522 -8.0606,8.0363124 -11.8681,15.3012675 -14.1244,26.950328 -0.521,2.689973 -1.1392,5.095065 -1.3737,5.344657 -0.5999,0.638322 -2.442,0.777934 -5.3272,0.403722 z"
         id="path1681"
         transform="scale(0.26458333)" />
      <path
         style="opacity:0.535484;fill:#ABC4D1;fill-opacity:0.21;stroke:#ABC4D1;stroke-width:0.353553;stroke-linecap:round;stroke-linejoin:round;stroke-opacity:0.21"
         d="m -1382.5371,7.871808 c -0.6658,-2.6528278 3.5754,-13.2134421 8.7878,-21.881634 3.1623,-5.258851 5.6574,-8.418541 10.1969,-12.912805 7.0674,-6.996864 11.2598,-9.686555 11.2598,-7.223792 0,0.966333 -1.1509,2.291364 -3.6478,4.199529 -9.136,6.982089 -18.6388,20.8319019 -22.8729,33.3359066 -1.2051,3.5590523 -2.1979,5.3033009 -3.0184,5.3033009 -0.2747,0 -0.5921,-0.3692265 -0.7054,-0.8205055 z"
         id="path1683"
         transform="scale(0.26458333)" />
      <path
         style="opacity:0.535484;fill:#ABC4D1;fill-opacity:0.21;stroke:#ABC4D1;stroke-width:0.353553;stroke-linecap:round;stroke-linejoin:round;stroke-opacity:0.21"
         d="m -1376.6757,59.96963 c -1.5769,-1.576913 -3.5222,-6.354989 -5.8346,-14.330987 -2.5161,-8.678978 -2.6683,-10.429825 -0.9065,-10.429825 1.1243,0 1.8053,1.304195 2.7004,5.171763 0.8598,3.714926 2.7338,9.681443 5.0733,16.151949 0.8928,2.469339 1.039,3.221143 0.7047,3.623922 -0.563,0.678411 -0.9093,0.641171 -1.7373,-0.186822 z"
         id="path1685"
         transform="scale(0.26458333)" />
      <path
         style="opacity:0.535484;fill:#ABC4D1;fill-opacity:0.21;stroke:#ABC4D1;stroke-width:0.353553;stroke-linecap:round;stroke-linejoin:round;stroke-opacity:0.21"
         d="m -1407.3005,68.269313 c -3.0659,-4.679117 -6.9167,-18.384208 -8.4447,-30.055291 -1.1831,-9.036115 -0.9536,-21.44032 0.5571,-30.1158034 0.5024,-2.8845921 1.5188,-4.2206788 2.9398,-3.8640541 0.7356,0.1846368 0.919,0.3941245 0.7432,0.8490306 -1.4696,3.8031562 -1.9755,24.7490219 -0.8457,35.0215979 0.602,5.474064 3.4805,16.350462 6.4006,24.184601 1.1569,3.103912 1.3363,3.898679 0.9775,4.331029 -0.6585,0.793374 -1.6788,0.639479 -2.3278,-0.35111 z"
         id="path1687"
         transform="scale(0.26458333)" />
      <path
         style="opacity:0.535484;fill:#ABC4D1;fill-opacity:0.21;stroke:#ABC4D1;stroke-width:0.353553;stroke-linecap:round;stroke-linejoin:round;stroke-opacity:0.21"
         d="m -1413.8643,65.420065 c -0.5156,-0.274306 -1.2655,-1.178065 -1.6664,-2.008352 -1.2538,-2.596144 -4.6268,-15.770531 -5.1841,-20.247944 -0.1653,-1.328197 -0.082,-1.943595 0.336,-2.474874 0.5492,-0.698547 0.5666,-0.695134 1.4381,0.281946 0.4851,0.543979 0.9577,1.339474 1.05,1.767767 0.7019,3.255967 2.2458,9.295896 3.8998,15.257063 1.5721,5.665884 1.8693,7.139257 1.5105,7.48843 -0.3536,0.344187 -0.6418,0.330853 -1.3839,-0.06404 z"
         id="path1689"
         transform="scale(0.26458333)" />
      <path
         style="opacity:0.535484;fill:#ABC4D1;fill-opacity:0.21;stroke:#ABC4D1;stroke-width:0.353553;stroke-linecap:round;stroke-linejoin:round;stroke-opacity:0.21"
         d="m -1325.2458,87.037128 c -9.2007,-2.43607 -22.4652,-8.896111 -22.4469,-10.932055 0,-0.408339 1.9614,-3.120961 4.0911,-5.668535 l 1.0895,-1.303378 6.5119,3.166925 c 5.8591,2.849517 8.8353,3.989505 15.2421,5.838397 2.3412,0.675614 2.5592,1.070353 2.0563,3.722601 -0.1963,1.034584 -0.3568,2.465334 -0.3568,3.179445 0,2.750623 -1.505,3.236295 -6.1872,1.9966 z"
         id="path1691"
         transform="scale(0.26458333)" />
      <path
         style="opacity:0.535484;fill:#ABC4D1;fill-opacity:0.21;stroke:#ABC4D1;stroke-width:0.353553;stroke-linecap:round;stroke-linejoin:round;stroke-opacity:0.21"
         d="m -1342.8524,56.156856 c -2.507,-2.561525 -5.9047,-6.66983 -5.9047,-7.139582 0,-0.565144 1.0392,-1.134997 1.692,-0.927812 1.0065,0.319448 6.0538,5.560632 7.3791,7.662584 0.8853,1.404151 1.0735,1.96567 0.778,2.321695 -0.738,0.889317 -1.6152,0.463053 -3.9444,-1.916885 z"
         id="path1693"
         transform="scale(0.26458333)" />
      <path
         style="opacity:0.535484;fill:#ABC4D1;fill-opacity:0.21;stroke:#ABC4D1;stroke-width:0.353553;stroke-linecap:round;stroke-linejoin:round;stroke-opacity:0.21"
         d="m -1320.7835,69.470878 c -4.8937,-1.289588 -6.671,-2.139862 -6.971,-3.335029 -0.4683,-1.866071 0.1814,-1.941904 5.2523,-0.613001 6.0528,1.586248 6.8993,1.948439 7.1815,3.072676 0.2983,1.188692 -0.027,1.972663 -0.81,1.952064 -0.3464,-0.0091 -2.4401,-0.493633 -4.6528,-1.07671 z"
         id="path1695"
         transform="scale(0.26458333)" />
      <path
         style="opacity:0.535484;fill:#ABC4D1;fill-opacity:0.21;stroke:#ABC4D1;stroke-width:0.353553;stroke-linecap:round;stroke-linejoin:round;stroke-opacity:0.21"
         d="m -1288.8089,64.122772 c -1.0359,-1.479089 -0.7088,-2.222931 1.7492,-3.976904 3.6852,-2.6297 8.5111,-7.457056 10.6133,-10.616348 2.2402,-3.366846 4.589,-8.212117 6.1627,-12.712596 1.3376,-3.82549 2.3562,-5.577281 3.1492,-5.415662 0.4719,0.09619 0.5674,0.539662 0.5176,2.40469 -0.072,2.701445 -1.2154,6.369886 -3.4342,11.017763 -3.2344,6.775543 -6.4571,10.717315 -13.6708,16.721311 -4.1402,3.44589 -4.3902,3.572551 -5.087,2.577746 z"
         id="path1697"
         transform="scale(0.26458333)" />
      <path
         style="opacity:0.535484;fill:#ABC4D1;fill-opacity:0.21;stroke:#ABC4D1;stroke-width:0.353553;stroke-linecap:round;stroke-linejoin:round;stroke-opacity:0.21"
         d="m -1268.297,24.536856 c -0.5568,-1.340404 -1.7641,-10.710291 -1.4766,-11.459573 0.1047,-0.272735 0.5799,-0.495882 1.056,-0.495882 0.6961,0 0.9742,0.294561 1.4191,1.502602 0.7869,2.137143 2.0463,8.87905 1.9144,10.248389 -0.098,1.017489 -0.2478,1.166863 -1.2686,1.265124 -1.0203,0.09821 -1.2152,-0.02754 -1.6443,-1.06066 z"
         id="path1699"
         transform="scale(0.26458333)" />
      <path
         style="opacity:0.535484;fill:#ABC4D1;fill-opacity:0.21;stroke:#ABC4D1;stroke-width:0.353553;stroke-linecap:round;stroke-linejoin:round;stroke-opacity:0.21"
         d="m -1280.1212,-2.8066309 c -1.7705,-1.8519692 -3.4587,-3.8306288 -3.7516,-4.3970216 -0.6178,-1.1947216 -0.3847,-2.135257 0.5292,-2.135257 1.1926,0 6.5393,4.8548972 8.284,7.5220687 0.6166,0.94252947 0.617,1.00893175 0.01,1.67937858 -0.3474,0.3839261 -0.9064,0.69804768 -1.2422,0.69804768 -0.3358,0 -2.0591,-1.51524745 -3.8296,-3.36721636 z"
         id="path1701"
         transform="scale(0.26458333)" />
      <path
         style="opacity:0.535484;fill:#ABC4D1;fill-opacity:0.21;stroke:#ABC4D1;stroke-width:0.353553;stroke-linecap:round;stroke-linejoin:round;stroke-opacity:0.21"
         d="m -1343.9595,-1.7634663 c -0.7434,-0.7433835 -0.7166,-0.8867193 0.4646,-2.4842609 2.4425,-3.3031914 7.464,-7.2913958 12.3359,-9.7974428 5.4588,-2.80796 10.6515,-4.327091 17.7027,-5.178961 3.2238,-0.389465 4.2972,-0.127001 4.2972,1.050676 0,1.128594 -1.3997,1.712963 -5.4723,2.28466 -9.6101,1.349008 -17.9012,5.120395 -24.2314,11.0221758 -3.7648,3.5099193 -4.3398,3.8600524 -5.0967,3.1031529 z"
         id="path1703"
         transform="scale(0.26458333)" />
      <path
         style="opacity:0.535484;fill:#ABC4D1;fill-opacity:0.21;stroke:#ABC4D1;stroke-width:0.353553;stroke-linecap:round;stroke-linejoin:round;stroke-opacity:0.21"
         d="m -1317.8211,100.24814 c -3.2447,-0.501628 -10.7442,-2.037544 -13.5651,-2.778165 -3.2937,-0.864723 -4.2894,-1.526643 -4.2894,-2.851472 0,-0.567405 0.1193,-1.099343 0.2652,-1.182086 0.1458,-0.08274 1.7766,0.228447 3.6239,0.691533 15.4661,3.877056 29.6823,3.913363 42.1281,0.10759 4.0423,-1.236073 5.4289,-1.3201 5.9427,-0.360102 0.593,1.107991 0.4385,1.44323 -0.928,2.014193 -1.989,0.831052 -8.5969,2.47834 -14.0856,3.511386 -5.4736,1.030223 -15.1348,1.458893 -19.0918,0.847123 z"
         id="path1705"
         transform="scale(0.26458333)" />
      <path
         style="opacity:0.535484;fill:#ABC4D1;fill-opacity:0.21;stroke:#ABC4D1;stroke-width:0.353553;stroke-linecap:round;stroke-linejoin:round;stroke-opacity:0.21"
         d="m -1321.887,131.2014 c -0.2917,-0.0739 -2.2009,-0.39527 -4.2427,-0.71406 -7.4592,-1.16466 -17.1416,-3.80298 -20.948,-5.70802 -1.7726,-0.88716 -2.1503,-1.76543 -1.1251,-2.61625 0.4651,-0.38601 1.3325,-0.19624 5.3917,1.17967 15.7461,5.33727 40.173,6.27351 56.4309,2.16289 7.8042,-1.97322 17.2802,-5.39637 22.3136,-8.06068 1.5636,-0.82764 3.22,-1.60345 3.6811,-1.72401 1.0499,-0.27457 2.1381,0.28126 2.1381,1.09215 0,1.19103 -5.3337,4.02157 -13.7886,7.31751 -13.4953,5.2608 -22.5234,6.87635 -39.598,7.08591 -5.3475,0.0656 -9.9613,0.0588 -10.253,-0.0151 z"
         id="path1707"
         transform="scale(0.26458333)" />
      <path
         style="opacity:0.535484;fill:#ABC4D1;fill-opacity:0.21;stroke:#ABC4D1;stroke-width:0.353553;stroke-linecap:round;stroke-linejoin:round;stroke-opacity:0.21"
         d="m -1351.7623,129.27774 c -7.4946,-2.67826 -29.158,-15.74716 -30.6147,-18.46896 -0.4146,-0.77466 0.3966,-2.41811 1.1896,-2.40994 0.2385,0.002 1.542,0.89649 2.8965,1.98672 5.2852,4.25395 13.4601,9.25849 22.2625,13.62875 3.1242,1.55111 6.2217,3.2321 6.8833,3.73554 l 1.203,0.91533 -0.8002,0.64797 c -0.9418,0.76261 -0.7816,0.76449 -3.02,-0.0354 z"
         id="path1709"
         transform="scale(0.26458333)" />
      <path
         style="opacity:0.535484;fill:#ABC4D1;fill-opacity:0.21;stroke:#ABC4D1;stroke-width:0.353553;stroke-linecap:round;stroke-linejoin:round;stroke-opacity:0.21"
         d="m -1238.2353,24.536855 c -0.2624,-0.644641 -0.67,-3.001715 -0.9058,-5.23794 -0.9753,-9.251753 -3.5404,-18.39748639 -7.2111,-25.7106011 -2.3404,-4.6628379 -3.6828,-6.8140159 -7.2076,-11.5502529 -2.8077,-3.772646 -3.1292,-4.903199 -1.4494,-5.097544 1.3517,-0.156389 2.9955,1.632871 6.7352,7.331194 3.8076,5.8019488 6.5395,11.2991475 8.389,16.8810799 2.2261,6.7185482 4.1495,16.4469501 4.3566,22.0352111 l 0.085,2.298098 -1.1575,0.111415 c -1.0217,0.09835 -1.2134,-0.02606 -1.6346,-1.06066 z"
         id="path1711"
         transform="scale(0.26458333)" />
      <path
         style="opacity:0.535484;fill:#ABC4D1;fill-opacity:0.21;stroke:#ABC4D1;stroke-width:0.353553;stroke-linecap:round;stroke-linejoin:round;stroke-opacity:0.21"
         d="m -1260.9342,80.322665 c -0.336,-0.875517 1.467,-3.810712 5.2884,-8.609392 2.0518,-2.576484 4.6795,-6.156212 5.8392,-7.954952 3.5427,-5.494635 4.5756,-6.383704 5.1852,-4.463115 0.6726,2.119246 -6.1565,12.22759 -13.0473,19.31229 -2.167,2.2279 -2.9175,2.622119 -3.2655,1.715169 z"
         id="path1713"
         transform="scale(0.26458333)" />
    </g>
  </g>
</svg>
