<?xml version="1.0" encoding="UTF-8" standalone="no"?>
<svg
   xmlns:dc="http://purl.org/dc/elements/1.1/"
   xmlns:cc="http://creativecommons.org/ns#"
   xmlns:rdf="http://www.w3.org/1999/02/22-rdf-syntax-ns#"
   xmlns:svg="http://www.w3.org/2000/svg"
   xmlns="http://www.w3.org/2000/svg"
   xmlns:sodipodi="http://sodipodi.sourceforge.net/DTD/sodipodi-0.dtd"
   xmlns:inkscape="http://www.inkscape.org/namespaces/inkscape"
   version="1.1"
   id="Layer_1"
   x="0px"
   y="0px"
   viewBox="0 0 291.31 291.31"
   style="enable-background:new 0 0 291.31 291.31;"
   xml:space="preserve"
   sodipodi:docname="html5-bw.svg"
   inkscape:version="1.0.2-2 (e86c870879, 2021-01-15)"><metadata
   id="metadata51"><rdf:RDF><cc:Work
       rdf:about=""><dc:format>image/svg+xml</dc:format><dc:type
         rdf:resource="http://purl.org/dc/dcmitype/StillImage" /><dc:title></dc:title></cc:Work></rdf:RDF></metadata><defs
   id="defs49"><filter
     style="color-interpolation-filters:sRGB;"
     inkscape:label="Color Shift"
     id="filter880"><feColorMatrix
       type="hueRotate"
       values="360"
       result="color1"
       id="feColorMatrix876" /><feColorMatrix
       type="saturate"
       values="0"
       result="color2"
       id="feColorMatrix878" /></filter></defs><sodipodi:namedview
   pagecolor="#ffffff"
   bordercolor="#666666"
   borderopacity="1"
   objecttolerance="10"
   gridtolerance="10"
   guidetolerance="10"
   inkscape:pageopacity="0"
   inkscape:pageshadow="2"
   inkscape:window-width="1920"
   inkscape:window-height="1017"
   id="namedview47"
   showgrid="false"
   inkscape:zoom="1.8468299"
   inkscape:cx="145.655"
   inkscape:cy="145.655"
   inkscape:window-x="-8"
   inkscape:window-y="32"
   inkscape:window-maximized="1"
   inkscape:current-layer="Layer_1" />
<g
   id="g14"
   style="filter:url(#filter880)">
	<path
   style="fill:#D99666;"
   d="M9.099,0h273.112L254.9,263.999L154.759,291.31h-18.207L36.41,263.999L9.099,0z"
   id="path2" />
	<path
   style="fill:#F4B459;"
   d="M145.655,27.302h100.141l-18.207,209.386l-81.933,27.311   C145.655,263.999,145.655,27.302,145.655,27.302z"
   id="path4" />
	<polygon
   style="fill:#FFFFFF;"
   points="218.649,81.806 221.516,54.613 63.43,54.613 66.616,81.806 69.53,118.403 69.493,118.403    72.252,145.641 178.228,145.641 174.587,188.975 145.655,198.115 145.655,197.833 107.183,187.664 104.825,163.785 72.698,163.785    77.013,207.647 77.013,209.44 145.655,227.584 203.218,209.44 203.919,209.44 203.937,209.194 204.064,209.176 204.064,207.738    209.272,145.641 209.39,145.641 212.158,118.403 102.94,118.403 100.027,81.806  "
   id="polygon6" />
	<g
   id="g12">
		<polygon
   style="fill:#E5E5E5;"
   points="145.655,54.613 63.43,54.613 66.616,81.806 69.53,118.403 69.493,118.403 72.252,145.641     145.655,145.641 145.655,118.403 102.94,118.403 100.027,81.806 145.655,81.806   "
   id="polygon8" />
		<polygon
   style="fill:#E5E5E5;"
   points="145.655,197.833 107.183,187.664 104.825,163.785 72.698,163.785 77.013,207.647     77.013,209.44 145.655,227.584 145.655,198.115   "
   id="polygon10" />
	</g>
</g>
<g
   id="g16">
</g>
<g
   id="g18">
</g>
<g
   id="g20">
</g>
<g
   id="g22">
</g>
<g
   id="g24">
</g>
<g
   id="g26">
</g>
<g
   id="g28">
</g>
<g
   id="g30">
</g>
<g
   id="g32">
</g>
<g
   id="g34">
</g>
<g
   id="g36">
</g>
<g
   id="g38">
</g>
<g
   id="g40">
</g>
<g
   id="g42">
</g>
<g
   id="g44">
</g>
</svg>
